<mxfile host="app.diagrams.net" modified="2023-10-11T17:38:43.439Z" agent="Mozilla/5.0 (Windows NT 10.0; Win64; x64) AppleWebKit/537.36 (KHTML, like Gecko) Chrome/116.0.0.0 Safari/537.36 OPR/102.0.0.0" etag="PhPPs0z8TWCMe4I0ItPn" version="22.0.4" type="github">
  <diagram id="R2lEEEUBdFMjLlhIrx00" name="Page-1">
    <mxGraphModel dx="2870" dy="783" grid="1" gridSize="10" guides="1" tooltips="1" connect="1" arrows="1" fold="1" page="1" pageScale="1" pageWidth="850" pageHeight="1100" math="0" shadow="0" extFonts="Permanent Marker^https://fonts.googleapis.com/css?family=Permanent+Marker">
      <root>
        <mxCell id="0" />
        <mxCell id="1" parent="0" />
        <mxCell id="lavQlaf5K3k3yDDHc6R4-1" value="Menu" style="swimlane;childLayout=stackLayout;horizontal=1;startSize=50;horizontalStack=0;rounded=1;fontSize=14;fontStyle=0;strokeWidth=2;resizeParent=0;resizeLast=1;shadow=0;dashed=0;align=center;arcSize=4;whiteSpace=wrap;html=1;" parent="1" vertex="1">
          <mxGeometry x="340" y="50" width="160" height="120" as="geometry" />
        </mxCell>
        <mxCell id="lavQlaf5K3k3yDDHc6R4-2" value="&lt;font style=&quot;font-size: 14px;&quot;&gt;&lt;b&gt;+id_menu&lt;/b&gt;&lt;/font&gt;&lt;br&gt;+numero_personas" style="align=left;strokeColor=none;fillColor=none;spacingLeft=4;fontSize=12;verticalAlign=top;resizable=0;rotatable=0;part=1;html=1;" parent="lavQlaf5K3k3yDDHc6R4-1" vertex="1">
          <mxGeometry y="50" width="160" height="70" as="geometry" />
        </mxCell>
        <mxCell id="lavQlaf5K3k3yDDHc6R4-3" value="Tener" style="shape=rhombus;perimeter=rhombusPerimeter;whiteSpace=wrap;html=1;align=center;" parent="1" vertex="1">
          <mxGeometry x="150" y="170" width="120" height="60" as="geometry" />
        </mxCell>
        <mxCell id="lavQlaf5K3k3yDDHc6R4-4" value="Platos" style="swimlane;childLayout=stackLayout;horizontal=1;startSize=50;horizontalStack=0;rounded=1;fontSize=14;fontStyle=0;strokeWidth=2;resizeParent=0;resizeLast=1;shadow=0;dashed=0;align=center;arcSize=4;whiteSpace=wrap;html=1;" parent="1" vertex="1">
          <mxGeometry x="-70" y="270" width="160" height="120" as="geometry" />
        </mxCell>
        <mxCell id="lavQlaf5K3k3yDDHc6R4-5" value="&lt;font style=&quot;font-size: 14px;&quot;&gt;&lt;b&gt;+id_plato&lt;/b&gt;&lt;/font&gt;&lt;br&gt;+nombre&lt;br&gt;+descripcion" style="align=left;strokeColor=none;fillColor=none;spacingLeft=4;fontSize=12;verticalAlign=top;resizable=0;rotatable=0;part=1;html=1;" parent="lavQlaf5K3k3yDDHc6R4-4" vertex="1">
          <mxGeometry y="50" width="160" height="70" as="geometry" />
        </mxCell>
        <mxCell id="lavQlaf5K3k3yDDHc6R4-6" value="Dias" style="swimlane;childLayout=stackLayout;horizontal=1;startSize=50;horizontalStack=0;rounded=1;fontSize=14;fontStyle=0;strokeWidth=2;resizeParent=0;resizeLast=1;shadow=0;dashed=0;align=center;arcSize=4;whiteSpace=wrap;html=1;" parent="1" vertex="1">
          <mxGeometry x="560" y="305" width="160" height="130" as="geometry" />
        </mxCell>
        <mxCell id="lavQlaf5K3k3yDDHc6R4-7" value="&lt;font style=&quot;font-size: 14px;&quot;&gt;&lt;b&gt;+fecha&lt;br&gt;&lt;/b&gt;&lt;/font&gt;+temperatuda&lt;br&gt;+num_personas&lt;br&gt;+plato_exitoso" style="align=left;strokeColor=none;fillColor=none;spacingLeft=4;fontSize=12;verticalAlign=top;resizable=0;rotatable=0;part=1;html=1;" parent="lavQlaf5K3k3yDDHc6R4-6" vertex="1">
          <mxGeometry y="50" width="160" height="80" as="geometry" />
        </mxCell>
        <mxCell id="lavQlaf5K3k3yDDHc6R4-9" value="Consumir" style="shape=rhombus;perimeter=rhombusPerimeter;whiteSpace=wrap;html=1;align=center;" parent="1" vertex="1">
          <mxGeometry x="330" y="340" width="120" height="60" as="geometry" />
        </mxCell>
        <mxCell id="lavQlaf5K3k3yDDHc6R4-13" value="Cant. Platos" style="ellipse;whiteSpace=wrap;html=1;align=center;" parent="1" vertex="1">
          <mxGeometry x="340" y="280" width="100" height="40" as="geometry" />
        </mxCell>
        <mxCell id="lavQlaf5K3k3yDDHc6R4-15" value="" style="edgeStyle=entityRelationEdgeStyle;fontSize=12;html=1;endArrow=ERoneToMany;rounded=0;exitX=-0.031;exitY=0.4;exitDx=0;exitDy=0;entryX=1;entryY=0.5;entryDx=0;entryDy=0;exitPerimeter=0;" parent="1" source="lavQlaf5K3k3yDDHc6R4-2" target="lavQlaf5K3k3yDDHc6R4-3" edge="1">
          <mxGeometry width="100" height="100" relative="1" as="geometry">
            <mxPoint x="260" y="190" as="sourcePoint" />
            <mxPoint x="360" y="90" as="targetPoint" />
          </mxGeometry>
        </mxCell>
        <mxCell id="lavQlaf5K3k3yDDHc6R4-16" value="" style="edgeStyle=entityRelationEdgeStyle;fontSize=12;html=1;endArrow=ERoneToMany;rounded=0;exitX=1;exitY=0.25;exitDx=0;exitDy=0;entryX=0;entryY=0.5;entryDx=0;entryDy=0;" parent="1" source="lavQlaf5K3k3yDDHc6R4-5" target="lavQlaf5K3k3yDDHc6R4-3" edge="1">
          <mxGeometry width="100" height="100" relative="1" as="geometry">
            <mxPoint x="330" y="210" as="sourcePoint" />
            <mxPoint x="320" y="270" as="targetPoint" />
          </mxGeometry>
        </mxCell>
        <mxCell id="lavQlaf5K3k3yDDHc6R4-17" value="" style="edgeStyle=entityRelationEdgeStyle;fontSize=12;html=1;endArrow=ERoneToMany;rounded=0;entryX=0;entryY=0.5;entryDx=0;entryDy=0;exitX=1;exitY=0.75;exitDx=0;exitDy=0;" parent="1" source="lavQlaf5K3k3yDDHc6R4-5" target="lavQlaf5K3k3yDDHc6R4-9" edge="1">
          <mxGeometry width="100" height="100" relative="1" as="geometry">
            <mxPoint x="80" y="370" as="sourcePoint" />
            <mxPoint x="310" y="430" as="targetPoint" />
          </mxGeometry>
        </mxCell>
        <mxCell id="lavQlaf5K3k3yDDHc6R4-18" value="" style="edgeStyle=entityRelationEdgeStyle;fontSize=12;html=1;endArrow=ERoneToMany;rounded=0;entryX=0;entryY=0.5;entryDx=0;entryDy=0;exitX=1;exitY=0.5;exitDx=0;exitDy=0;" parent="1" source="lavQlaf5K3k3yDDHc6R4-9" target="lavQlaf5K3k3yDDHc6R4-6" edge="1">
          <mxGeometry width="100" height="100" relative="1" as="geometry">
            <mxPoint x="530" y="470" as="sourcePoint" />
            <mxPoint x="480" y="420" as="targetPoint" />
            <Array as="points">
              <mxPoint x="510" y="540" />
            </Array>
          </mxGeometry>
        </mxCell>
        <mxCell id="lavQlaf5K3k3yDDHc6R4-19" value="" style="endArrow=none;html=1;rounded=0;exitX=0.5;exitY=1;exitDx=0;exitDy=0;entryX=0.5;entryY=0;entryDx=0;entryDy=0;" parent="1" source="lavQlaf5K3k3yDDHc6R4-13" target="lavQlaf5K3k3yDDHc6R4-9" edge="1">
          <mxGeometry relative="1" as="geometry">
            <mxPoint x="490" y="250" as="sourcePoint" />
            <mxPoint x="650" y="250" as="targetPoint" />
          </mxGeometry>
        </mxCell>
        <mxCell id="lavQlaf5K3k3yDDHc6R4-21" value="" style="edgeStyle=entityRelationEdgeStyle;fontSize=12;html=1;endArrow=ERoneToMany;startArrow=ERmandOne;rounded=0;entryX=0;entryY=0.25;entryDx=0;entryDy=0;exitX=1;exitY=0.25;exitDx=0;exitDy=0;" parent="1" source="lavQlaf5K3k3yDDHc6R4-2" target="lavQlaf5K3k3yDDHc6R4-6" edge="1">
          <mxGeometry width="100" height="100" relative="1" as="geometry">
            <mxPoint x="490" y="150" as="sourcePoint" />
            <mxPoint x="590" y="50" as="targetPoint" />
          </mxGeometry>
        </mxCell>
      </root>
    </mxGraphModel>
  </diagram>
</mxfile>
